#!OML:ASF I:\Actors\actors\Patient Classification 1\Patient 1\Session 1\Subject1.ASF
:FULLY-SPECIFIED
:DEGREES
189
root 0.0653646 17.5016 7.70561 6.25356 1.71621 -10.4028
lowerback 1.37575 1.91315 8.35429
upperback -8.66026 3.24285 1.16437
thorax -9.6453 0.986678 -3.71728
lowerneck -10.1113 -7.00212 -5.16155
upperneck 21.4777 -11.2153 10.238
head 9.29932 -4.68397 3.07208
rclavicle -1.39149e-015 -1.35174e-014
rhumerus 20.8077 13.1462 -93.4859
rradius 49.5181
rwrist 51.7256
rhand -39.1081 -50.5819
rfingers 7.12502
rthumb -12.1079 -80.2115
lclavicle -1.39149e-015 -1.35174e-014
lhumerus -11.2345 -26.695 104.867
lradius 93.4652
lwrist -6.26101
lhand -49.2344 -41.2444
lfingers 7.12502
lthumb -21.8541 -12.4585
rfemur -6.52982 18.7684 29.7024
rtibia 6.09256
rfoot -10.6257 -18.4546
rtoes 3.02817
lfemur -1.15458 -36.9121 -1.82042
ltibia -1.61859
lfoot -11.7452 41.9877
ltoes -2.40918
190
root 0.0445747 17.4985 7.704 6.23731 1.86634 -10.3736
lowerback 1.40312 1.87636 8.38666
upperback -8.66527 3.1902 1.05732
thorax -9.66707 0.952033 -3.84684
lowerneck -10.2807 -6.94207 -5.10664
upperneck 21.5495 -11.1599 10.3017
head 9.35251 -4.63875 3.08716
rclavicle -1.91827e-014 -3.97569e-014
rhumerus 20.844 14.0196 -93.4353
rradius 50.6417
rwrist 50.7899
rhand -39.6445 -57.9761
rfingers 7.12502
rthumb -12.6251 -87.5745
lclavicle -1.91827e-014 -3.97569e-014
lhumerus -11.1068 -27.7635 105.223
lradius 95.7718
lwrist -6.46004
lhand -48.5531 -41.3142
lfingers 7.12502
lthumb -21.1998 -12.4535
rfemur -6.44545 18.5537 29.7439
rtibia 5.95697
rfoot -10.6349 -18.3804
rtoes 3.34999
lfemur -1.19631 -37.1714 -1.8027
ltibia -1.62802
lfoot -11.4694 42.2262
ltoes -2.95836
191
root 0.0230878 17.4975 7.70114 6.23777 2.03246 -10.4211
lowerback 1.08217 1.84302 8.81965
upperback -8.50807 3.10214 0.753925
thorax -9.28218 0.883056 -4.38763
lowerneck -10.5855 -6.8767 -4.89836
upperneck 21.6845 -11.1713 10.5231
head 9.46166 -4.5892 3.11909
rclavicle -2.06736e-014 -2.62396e-014
rhumerus 21.417 13.931 -93.9824
rradius 50.9514
rwrist 50.496
rhand -39.8037 -57.9332
rfingers 7.12502
rthumb -12.7785 -87.5221
lclavicle -2.06736e-014 -2.62396e-014
lhumerus -10.4546 -28.9879 104.887
lradius 97.5592
lwrist -7.38508
lhand -47.8989 -42.1082
lfingers 7.12502
lthumb -20.5713 -13.1782
rfemur -6.42352 18.4896 29.869
rtibia 5.88123
rfoot -10.6617 -18.4679
rtoes 3.71059
lfemur -1.33646 -37.1691 -1.59745
ltibia -1.64501
lfoot -11.1998 42.2304
ltoes -3.27575
192
root 0.00502676 17.4977 7.69978 6.20977 2.18549 -10.3283
lowerback 1.08629 1.77733 8.64911
upperback -8.58042 3.00929 0.760046
thorax -9.38354 0.844312 -4.281
lowerneck -10.7684 -6.821 -4.85894
upperneck 22.0774 -11.0996 10.3478
head 9.61417 -4.55046 3.05884
rclavicle -3.39922e-014 7.95139e-016
rhumerus 21.7504 13.7847 -94.2978
rradius 50.6078
rwrist 50.8893
rhand -39.9862 -58.2193
rfingers 7.12502
rthumb -12.9545 -87.7972
lclavicle -3.39922e-014 7.95139e-016
lhumerus -9.96444 -29.7109 104.996
lradius 98.8466
lwrist -8.79269
lhand -47.452 -42.9505
lfingers 7.12502
lthumb -20.1417 -13.9746
rfemur -6.35261 18.4643 29.8307
rtibia 5.79188
rfoot -10.6962 -18.5899
rtoes 3.94202
lfemur -1.42109 -37.1616 -1.62693
ltibia -1.60546
lfoot -11.1378 42.1579
ltoes -3.21277
193
root -0.0078695 17.4989 7.70018 6.17726 2.25282 -10.1735
lowerback 1.33691 1.72877 8.11734
upperback -8.84309 2.9725 0.979302
thorax -9.85914 0.850687 -3.76339
lowerneck -10.7485 -6.77592 -4.96196
upperneck 22.5487 -10.968 9.94222
head 9.74396 -4.52521 2.95688
rclavicle 1.35174e-014 -1.74931e-014
rhumerus 21.869 13.7344 -94.3066
rradius 49.8381
rwrist 51.4677
rhand -39.6027 -57.9374
rfingers 7.12502
rthumb -12.5847 -87.5384
lclavicle 1.35174e-014 -1.74931e-014
lhumerus -9.61825 -30.0722 105.448
lradius 99.6523
lwrist -10.3871
lhand -47.575 -43.657
lfingers 7.12502
lthumb -20.26 -14.6937
rfemur -6.25525 18.433 29.7111
rtibia 5.6737
rfoot -10.6317 -18.6553
rtoes 3.69478
lfemur -1.41715 -37.1529 -1.81324
ltibia -1.52677
lfoot -11.053 42.0924
ltoes -3.37433
194
root -0.01529 17.5007 7.70155 6.13131 2.21183 -10.0594
lowerback 1.04611 1.75459 8.19333
upperback -8.78478 2.9678 0.862846
thorax -9.6114 0.849341 -3.91684
lowerneck -10.7472 -6.7131 -4.98725
upperneck 22.7115 -10.9142 10.0295
head 9.80384 -4.48814 3.0004
rclavicle 1.56046e-014 -4.37326e-014
rhumerus 22.5461 13.4216 -94.5858
rradius 48.6893
rwrist 52.2639
rhand -39.2119 -57.6452
rfingers 7.12502
rthumb -12.208 -87.2689
lclavicle 1.56046e-014 -4.37326e-014
lhumerus -8.62509 -30.7803 105.009
lradius 100.13
lwrist -11.4778
lhand -47.9632 -44.1766
lfingers 7.12502
lthumb -20.633 -15.2533
rfemur -6.14231 18.4554 29.6293
rtibia 5.58509
rfoot -10.5888 -18.6634
rtoes 3.61124
lfemur -1.31197 -37.03 -2.00473
ltibia -1.4863
lfoot -11.1072 41.9859
ltoes -3.24479
195
root -0.0173271 17.5012 7.7032 6.04602 2.11008 -10.0611
lowerback 1.12259 1.76097 8.08533
upperback -8.89498 2.99587 0.999303
thorax -9.78823 0.867838 -3.71812
lowerneck -10.6947 -6.63473 -5.15367
upperneck 23.0147 -10.7928 9.98304
head 9.89693 -4.44329 3.03273
rclavicle 3.27995e-014 2.94201e-014
rhumerus 22.939 13.3544 -94.6197
rradius 47.4192
rwrist 52.8579
rhand -39.2484 -57.1442
rfingers 7.12502
rthumb -12.2432 -86.7658
lclavicle 3.27995e-014 2.94201e-014
lhumerus -7.95464 -31.1777 104.886
lradius 100.656
lwrist -11.8119
lhand -48.2067 -44.1549
lfingers 7.12502
lthumb -20.867 -15.2572
rfemur -6.01292 18.4946 29.6775
rtibia 5.56046
rfoot -10.588 -18.5959
rtoes 3.7419
lfemur -1.14651 -36.7173 -2.07074
ltibia -1.51535
lfoot -11.2227 41.7729
ltoes -2.96379
196
root -0.0145997 17.5008 7.7053 5.92392 2.00226 -10.1533
lowerback 1.11354 1.83753 8.26552
upperback -8.90321 3.10887 0.985701
thorax -9.77287 0.908375 -3.84153
lowerneck -10.7302 -6.61843 -5.00325
upperneck 23.1864 -10.7936 9.88461
head 9.95048 -4.43421 2.97375
rclavicle 9.24349e-015 -1.74931e-014
rhumerus 23.5434 13.0562 -94.6916
rradius 46.026
rwrist 53.3192
rhand -39.7938 -56.7743
rfingers 7.12502
rthumb -12.769 -86.3638
lclavicle 9.24349e-015 -1.74931e-014
lhumerus -7.23848 -31.813 104.537
lradius 101.361
lwrist -11.3132
lhand -48.4097 -43.5013
lfingers 7.12502
lthumb -21.062 -14.6251
rfemur -5.84388 18.5648 29.8333
rtibia 5.52695
rfoot -10.5424 -18.5686
rtoes 3.62505
lfemur -0.957954 -36.3118 -2.03819
ltibia -1.57428
lfoot -10.9888 41.513
ltoes -3.40749
197
root -0.00544838 17.5019 7.70775 5.83492 1.91185 -10.1563
lowerback 1.09157 1.93371 8.44357
upperback -8.90591 3.24228 0.921805
thorax -9.73725 0.957744 -4.01849
lowerneck -10.8515 -6.62768 -4.9516
upperneck 23.3546 -10.8397 9.90686
head 10.0371 -4.43865 2.96474
rclavicle 2.98177e-015 -3.10104e-014
rhumerus 24.1996 12.425 -94.8604
rradius 44.6011
rwrist 54.3432
rhand -39.9801 -56.6893
rfingers 7.12502
rthumb -12.9486 -86.2675
lclavicle 2.98177e-015 -3.10104e-014
lhumerus -6.64593 -32.409 104.32
lradius 102.145
lwrist -10.3878
lhand -48.5468 -43.073
lfingers 7.12502
lthumb -21.1937 -14.2115
rfemur -5.6921 18.6458 29.8573
rtibia 5.46744
rfoot -10.4693 -18.5898
rtoes 3.25007
lfemur -0.782617 -36.1908 -2.15711
ltibia -1.63364
lfoot -10.7373 41.5052
ltoes -3.77665
198
root 0.00966488 17.5038 7.71027 5.77453 1.82233 -10.0414
lowerback 1.06944 1.97279 8.50294
upperback -8.91038 3.29451 0.899351
thorax -9.7192 0.978095 -4.07864
lowerneck -10.9553 -6.59786 -5.08925
upperneck 23.4896 -10.8238 10.0669
head 10.1226 -4.418 3.04469
rclavicle 6.26172e-015 -4.77083e-015
rhumerus 24.7695 11.7238 -95.1952
rradius 43.459
rwrist 55.5604
rhand -39.6362 -56.0318
rfingers 7.12502
rthumb -12.617 -85.6307
lclavicle 6.26172e-015 -4.77083e-015
lhumerus -6.17266 -32.747 104.26
lradius 102.875
lwrist -9.42791
lhand -48.7076 -42.8911
lfingers 7.12502
lthumb -21.3482 -14.0471
rfemur -5.54906 18.7581 29.7128
rtibia 5.38129
rfoot -10.3726 -18.6434
rtoes 2.9054
lfemur -0.635013 -36.2923 -2.46687
ltibia -1.64854
lfoot -10.7194 41.6941
ltoes -3.63329
199
root 0.0281915 17.5046 7.71271 5.71417 1.74444 -9.90415
lowerback 1.09271 1.96527 8.51133
upperback -8.93124 3.28965 0.912065
thorax -9.75803 0.973108 -4.07074
lowerneck -11.0062 -6.54772 -5.10999
upperneck 23.5626 -10.7538 10.0611
head 10.1532 -4.38397 3.05508
rclavicle 3.97569e-015 -1.43125e-014
rhumerus 25.1542 11.2705 -95.5259
rradius 42.8066
rwrist 56.0612
rhand -39.2061 -54.8476
rfingers 7.12502
rthumb -12.2023 -84.4717
lclavicle 3.97569e-015 -1.43125e-014
lhumerus -5.80757 -32.9099 104.249
lradius 103.53
lwrist -8.54401
lhand -48.6344 -42.2013
lfingers 7.12502
lthumb -21.2779 -13.3493
rfemur -5.36413 18.9895 29.5313
rtibia 5.22382
rfoot -10.2748 -18.8302
rtoes 2.85082
lfemur -0.529456 -36.2771 -2.80222
ltibia -1.61718
lfoot -10.5206 41.7759
ltoes -3.89029
